<svg width="96" height="96" xmlns="http://www.w3.org/2000/svg" xmlns:xlink="http://www.w3.org/1999/xlink" overflow="hidden"><defs><clipPath id="clip0"><rect x="592" y="312" width="96" height="96"/></clipPath></defs><g clip-path="url(#clip0)" transform="translate(-592 -312)"><path d="M651.3 349.3C647.1 349.3 643.8 345.9 643.8 341.8 643.8 337.7 647.2 334.3 651.3 334.3 655.5 334.3 658.8 337.7 658.8 341.8 658.8 345.9 655.4 349.3 651.3 349.3ZM668.2 337.1C667.8 335.7 667.3 334.4 666.6 333.2L668.2 328.5 664.6 324.9 659.9 326.5C658.7 325.8 657.4 325.3 656 324.9L653.8 320.5 648.8 320.5 646.6 324.9C645.2 325.3 643.9 325.8 642.7 326.5L638 324.9 634.4 328.5 636 333.2C635.3 334.4 634.8 335.7 634.4 337.1L630 339.3 630 344.3 634.4 346.5C634.8 347.9 635.3 349.2 636 350.4L634.4 355.1 637.9 358.6 642.6 357C643.8 357.7 645.1 358.2 646.5 358.6L648.7 363 653.7 363 655.9 358.6C657.3 358.2 658.6 357.7 659.8 357L664.5 358.6 668.1 355.1 666.5 350.4C667.2 349.2 667.8 347.8 668.2 346.5L672.6 344.3 672.6 339.3 668.2 337.1Z" fill="#000000" fill-rule="nonzero" fill-opacity="1"/><path d="M628.7 385.7C624.5 385.7 621.2 382.3 621.2 378.2 621.2 374 624.6 370.7 628.7 370.7 632.9 370.7 636.2 374.1 636.2 378.2 636.2 382.3 632.9 385.7 628.7 385.7L628.7 385.7ZM644 369.6 645.6 364.9 642 361.3 637.3 362.9C636.1 362.2 634.7 361.7 633.4 361.3L631.2 356.9 626.2 356.9 624 361.3C622.6 361.7 621.3 362.2 620.1 362.9L615.4 361.3 611.9 364.8 613.4 369.5C612.7 370.7 612.2 372.1 611.8 373.4L607.4 375.6 607.4 380.6 611.8 382.8C612.2 384.2 612.7 385.5 613.4 386.7L611.9 391.4 615.4 394.9 620.1 393.4C621.3 394.1 622.6 394.6 624 395L626.2 399.4 631.2 399.4 633.4 395C634.8 394.6 636.1 394.1 637.3 393.4L642 395 645.5 391.4 644 386.8C644.7 385.6 645.2 384.3 645.6 382.9L650 380.7 650 375.7 645.6 373.5C645.2 372.1 644.7 370.8 644 369.6Z" fill="#000000" fill-rule="nonzero" fill-opacity="1"/></g></svg>